<svg width="168" height="168" viewBox="0 0 168 168" fill="none" xmlns="http://www.w3.org/2000/svg">
<g clip-path="url(#clip0)">
<path d="M95.8059 108.423C95.9797 108.77 95.8059 109.205 95.4584 109.379C95.1108 109.552 94.6764 109.379 94.5026 109.031C94.2419 108.51 93.8943 107.901 93.5468 107.467C93.2861 107.033 93.4599 106.424 93.9812 106.337C94.0681 106.337 97.0224 104.426 99.3685 102.862C102.583 100.689 105.016 98.8648 105.538 98.2565C105.625 98.0827 105.972 97.7352 105.972 97.8221C106.146 97.5614 106.32 97.3876 106.58 96.9531C106.841 96.6056 106.928 96.5187 107.015 96.4318C107.102 96.3449 107.189 96.258 107.276 96.1711C107.362 95.9973 107.449 95.9104 107.536 95.8236C107.797 95.476 107.276 93.3037 106.32 90.0887C106.233 89.915 106.233 89.6543 106.146 89.3936C106.059 89.1329 105.972 88.8723 105.885 88.6116C105.798 88.1771 105.712 88.0033 105.625 87.8296C105.451 87.2213 105.277 86.7869 105.19 86.3524C104.843 85.3097 104.669 84.6146 104.582 84.0932C104.495 82.9637 104.321 81.921 104.061 80.8783C103.974 80.5307 103.887 80.1831 103.8 79.8356C103.626 79.2273 103.365 78.6191 103.105 77.924C103.018 77.5764 102.41 76.0124 102.236 75.6648C101.975 74.8828 101.801 74.3614 101.715 73.927C101.715 72.5367 101.541 70.9727 101.367 70.1038C101.193 69.3217 100.585 68.279 99.8898 67.4101C99.7161 67.1495 99.7161 67.1495 99.6292 67.0626C99.5423 66.9757 99.4554 66.8019 99.1947 66.6281C99.1078 66.5412 98.6734 66.1068 98.6734 66.0199C98.4127 65.7592 98.2389 65.5854 98.0651 65.3247C97.9782 65.2379 97.9782 65.2379 97.8913 65.151C97.1962 64.4558 96.7618 63.8476 96.4142 63.5C95.1108 61.8491 94.3288 59.9375 93.8075 57.4176C93.4599 55.7667 93.373 54.2896 93.7206 52.9862C93.7206 52.8993 93.8075 52.8124 93.8943 52.7255C94.3288 52.2042 94.7633 51.6828 95.2846 50.9877C95.3715 50.9008 96.3273 49.5974 96.588 49.3368C96.6749 49.163 96.8486 48.9892 97.0224 48.6416C97.1962 48.4679 97.1962 48.381 97.2831 48.2941C97.37 48.2072 97.37 48.1203 97.4569 48.0334C97.8044 47.5989 98.0651 46.9907 98.4996 46.2087C98.5865 45.3398 99.9767 45.3398 99.9767 46.2956C99.9767 46.9038 99.8898 47.5121 99.8029 48.1203C99.8029 48.381 99.7161 48.6416 99.6292 48.9892C99.5423 49.5106 99.5423 49.5974 99.4554 49.8581C99.2816 50.4664 99.1947 50.9877 98.934 52.0304C98.934 52.378 98.8471 52.4649 98.8471 52.6386C98.2389 54.9847 97.9782 56.375 97.9782 57.8521C97.9782 60.7195 99.2816 62.8049 101.28 64.2821C101.628 64.5427 102.062 64.8034 102.41 64.9772C101.28 62.8049 101.28 60.1982 102.062 56.6356C102.149 56.1143 102.236 55.6798 102.497 54.8109C103.105 52.2911 103.279 51.3353 103.365 50.1188C103.539 47.7727 103.105 45.0791 102.323 42.8199C101.454 40.6477 100.411 38.9967 99.1078 38.3016C99.0209 38.3016 99.0209 38.2147 98.934 38.2147C98.7602 38.0409 98.7602 38.0409 98.6734 37.954C97.9782 37.4327 97.1093 37.2589 96.6749 37.6934C96.588 37.7802 96.588 37.7802 96.5011 37.8671C96.4142 38.1278 96.1535 38.3016 95.8059 38.3016C95.2846 38.3016 95.1108 38.2147 93.9812 37.6065C93.6337 37.4327 93.4599 37.3458 93.2861 37.2589C92.8516 37.0851 92.4172 36.9982 91.5483 36.8244C91.0269 36.7375 90.6794 36.6507 90.3318 36.5638C89.2022 36.4769 88.0726 36.5638 87.0299 36.8244C86.943 36.8244 86.8562 36.8244 86.7693 36.9113C86.6824 36.9113 86.5955 36.9113 86.5086 36.9982C86.2479 37.0851 86.0741 37.0851 85.9004 37.172C85.2921 37.2589 84.9446 37.3458 84.6839 37.5196C84.3363 37.6065 83.9887 37.7802 83.5543 37.954C82.9461 38.3016 82.3378 38.736 81.8165 39.2574C81.6427 39.4312 81.5558 39.605 81.382 39.9525C81.2951 40.1263 81.2082 40.2132 81.2082 40.3001C81.1213 40.5608 81.0344 40.7345 81.0344 40.8214C81.0344 41.0821 81.0344 41.0821 81.0344 41.2559C81.0344 41.4297 81.0344 41.4297 81.0344 41.5166C81.2082 41.7772 81.1213 42.1248 80.8607 42.3855C80.7738 42.4724 80.7738 42.5593 80.7738 42.5593C80.6869 42.733 80.6 42.8199 80.6 42.9937C80.5131 43.1675 80.4262 43.2544 80.3393 43.3413C80.1655 43.6888 80.0786 43.9495 79.9049 44.2102C79.818 44.4709 79.6442 44.6446 79.3835 44.6446C79.5573 44.6446 79.5573 44.6446 79.5573 44.6446C79.4704 44.9053 79.3835 44.9922 79.3835 45.0791C79.3835 45.166 79.2966 45.2529 79.2966 45.2529C79.2097 45.3398 79.2097 45.4267 79.2097 45.5136C79.2097 45.6004 79.1228 45.6873 79.1228 45.7742C79.1228 45.8611 79.036 45.948 79.036 46.0349C78.9491 46.2087 78.9491 46.73 79.1228 47.2514C79.1228 47.5989 79.1228 47.6858 79.1228 47.7727C79.1228 47.9465 79.036 48.0334 78.9491 48.2072C78.6015 48.7285 78.2539 49.0761 77.8195 49.4237C77.6457 49.5974 77.1243 49.945 77.2112 49.945C77.1243 50.0319 77.0375 50.1188 77.0375 50.1188L76.8637 50.2926C76.9506 50.4664 77.0375 50.5532 77.1243 50.6401C77.2981 50.727 77.385 50.727 77.385 50.8139C77.5588 50.9877 77.6457 50.9877 77.7326 51.0746L77.9064 51.2484C77.9933 51.3353 78.0801 51.4222 78.167 51.5959C78.2539 51.6828 78.2539 51.7697 78.3408 51.8566C78.4277 51.9435 78.4277 52.0304 78.4277 52.2042C78.4277 52.4649 78.4277 52.6386 78.3408 52.7255L78.0801 53.2469C78.167 53.4207 78.2539 53.5944 78.2539 53.7682C78.2539 53.5944 78.167 53.4207 78.0801 53.3338C78.0801 53.3338 78.167 53.4207 78.2539 53.5075C78.6015 53.8551 78.6015 54.3765 78.3408 54.6371C78.3408 54.6371 78.4277 54.724 78.6015 54.8978C79.036 55.4192 79.036 55.7667 78.8622 56.5487C78.7753 56.9832 78.7753 57.0701 78.8622 57.0701C78.9491 57.157 79.036 57.157 79.036 57.2439C79.036 57.2439 79.2097 57.3308 79.4704 57.5045C79.4704 57.5045 79.5573 57.5914 79.7311 57.5914C79.9049 57.5914 79.9918 57.5914 80.2524 57.5914H81.0344C81.2951 57.5045 81.4689 57.4176 81.6427 57.4176C81.9034 57.4176 81.9034 57.3308 82.0771 57.3308H82.2509C82.3378 57.2439 82.5116 57.2439 82.5985 57.2439C82.6854 57.157 82.7723 57.157 82.9461 57.157C83.1198 57.157 83.2067 57.0701 83.4674 57.0701C83.6412 57.0701 83.7281 56.9832 83.9019 56.9832H84.0756V56.9832C84.4232 56.9832 84.8577 57.0701 85.379 57.157C85.5528 57.2439 85.7266 57.3308 85.9004 57.5045C86.5086 58.8079 87.2037 60.2851 87.5513 61.4146C87.5513 61.5884 87.6382 61.6753 87.5513 61.8491C87.3775 62.4573 87.1168 62.8049 86.6824 63.2394C86.5955 63.3263 86.3348 63.5869 86.3348 63.5869C86.161 63.7607 86.0741 63.8476 85.9872 63.9345C85.6397 64.2821 85.379 64.5427 84.7708 64.9772C84.2494 65.4116 83.9887 65.5854 83.7281 65.8461C83.6412 65.933 83.4674 66.1068 83.4674 66.2806C83.2936 66.6281 83.0329 66.8019 82.6854 66.9757C82.4247 67.1495 82.164 67.2364 81.7296 67.497C81.2082 67.7577 81.0344 67.8446 80.6869 68.0184C80.2524 68.1922 79.9049 68.4528 79.3835 68.7135C79.2097 68.8004 79.036 68.8873 78.7753 69.0611C78.5146 69.2349 78.3408 69.3217 78.167 69.4086C77.385 69.8431 76.7768 70.1907 76.1685 70.5382C75.3865 70.9727 74.6914 71.4071 73.9963 71.9285C72.3453 73.0581 70.8682 75.2303 70.5206 76.8813C70.1731 78.4453 70.7813 80.0962 71.824 80.7045C72.0847 80.8783 72.1715 81.0521 72.1715 81.3127V81.921C72.1715 82.1816 72.0847 82.3554 71.9109 82.5292C71.7371 82.6161 71.7371 82.703 71.4764 82.8768C70.9551 83.2243 70.5206 83.6588 69.3041 85.049C68.8697 85.4835 68.0877 85.3097 68.0008 84.7015C67.9139 84.3539 67.5663 83.485 66.4367 81.2258C66.2629 80.7914 66.1761 80.6176 66.0023 80.3569C65.6547 79.3142 65.2203 78.4453 64.7858 77.2288C64.1776 75.491 63.5693 73.6663 63.2218 71.7547C62.9611 70.1907 63.2218 69.4955 64.0038 69.148C64.1776 68.9742 64.612 68.3659 64.8727 67.8446C64.9596 67.6708 65.2203 67.3232 65.6547 66.8019C65.8285 66.5412 66.0023 66.2806 66.1761 66.1068C66.1761 65.8461 66.1761 65.6723 66.1761 65.4985C66.1761 65.4985 66.0892 65.4985 65.9154 65.5854C65.394 65.8461 64.7858 65.3247 64.9596 64.7165C64.9596 64.3689 64.9596 64.1952 64.9596 64.1083C64.9596 63.8476 64.8727 63.8476 64.4382 63.8476C64.3513 63.8476 63.5693 63.9345 63.3955 64.0214C62.0053 64.1952 61.3102 64.4558 61.2233 64.5427C61.1364 64.6296 61.0495 64.9772 60.8757 65.4985C60.7888 65.7592 60.7019 66.0199 60.7019 66.3674C60.7019 66.5412 60.615 66.715 60.615 66.715C60.615 66.8019 60.615 66.8888 60.615 66.9757C60.615 67.2364 60.5281 67.497 60.5281 67.7577C60.4412 68.279 60.4412 68.8873 60.4412 69.3217C60.4412 70.0169 60.4412 70.6251 60.5281 70.9727C60.615 71.0596 60.7019 71.2333 60.7019 71.4071C61.1364 76.0124 62.0053 81.4865 63.048 86.4393C63.4824 88.6116 64.0038 90.6101 64.3513 92.0003C64.5251 92.6955 64.6989 93.2168 64.8727 93.5644C64.9596 93.6513 64.9596 93.8251 65.0465 93.912C65.4809 93.9988 66.5236 93.8251 67.045 93.6513C67.2188 93.5644 68.0877 93.1299 69.2172 92.5217C69.6517 92.261 70.6944 91.6528 70.7813 91.6528C71.042 91.5659 71.1289 91.3921 71.3026 91.3921C71.3895 91.3921 71.3895 91.3052 71.4764 91.3052C71.5633 91.2183 71.5633 91.2183 71.9109 91.2183C72.2584 91.2183 72.606 91.479 72.606 91.8266C72.606 91.9135 72.606 92.1741 72.6929 92.4348C72.6929 92.5217 72.7798 94.6071 72.7798 95.5629C72.8667 97.2138 72.9536 98.8648 73.1274 100.516C73.3011 103.036 74.0832 105.468 75.3865 108.51C75.5603 108.857 75.3865 109.292 75.039 109.465C74.6914 109.639 74.2569 109.465 74.0832 109.118C72.6929 105.99 71.9109 103.383 71.6502 100.689C71.4764 99.0385 71.3895 97.3876 71.3026 95.6498C71.3026 95.0415 71.2157 93.912 71.2157 93.2168C70.8682 93.3906 70.2599 93.7382 70.0862 93.912C68.4352 94.4333 67.7401 94.7809 67.3925 94.9546C66.4367 95.3022 64.8727 95.5629 64.1776 95.2153C62.8742 94.6071 60.0937 81.3996 59.1379 71.8416C59.051 71.7547 59.051 71.6678 59.051 71.5809C58.8772 71.0596 58.8772 70.2775 58.8772 69.2349C58.8772 68.7135 58.9641 68.1053 58.9641 67.5839C58.9641 67.3232 59.051 67.0626 59.051 66.8019C59.051 66.6281 59.051 66.5412 59.051 66.4543C59.051 66.3674 59.1379 66.1937 59.1379 66.0199C59.2248 65.6723 59.3117 65.4116 59.3117 65.0641C59.4854 64.4558 59.6592 63.9345 59.833 63.6738C60.2675 63.0656 61.0495 62.8049 63.048 62.5442C63.2218 62.5442 64.0038 62.3704 64.0907 62.3704C65.3071 62.1967 66.0892 62.8049 66.2629 63.7607C66.4367 63.7607 66.6974 63.7607 66.8712 63.9345C67.2188 64.1952 67.3925 64.6296 67.5663 65.151C67.6532 65.5854 67.7401 66.0199 67.7401 66.2806C67.7401 66.4543 67.6532 66.6281 67.5663 66.715C67.4794 66.8019 67.4794 66.8888 67.3056 66.9757C67.1319 67.1495 66.9581 67.4101 66.7843 67.5839C66.4367 68.0184 66.1761 68.3659 66.1761 68.4528C65.8285 69.2349 65.3071 70.0169 64.8727 70.2775C64.6989 70.3644 64.6989 70.3644 64.6989 70.3644C64.5251 70.5382 64.5251 70.6251 64.6989 71.494C65.0465 73.2318 65.5678 74.9697 66.2629 76.7075C66.6974 77.8371 67.045 78.706 67.4794 79.6618C67.5663 79.9225 67.6532 80.0963 67.9139 80.5307C68.5221 81.7472 68.8697 82.5292 69.1304 83.1374C69.8255 82.3554 70.2599 82.0079 70.6944 81.7472C69.391 80.6176 68.6959 78.6191 68.9566 76.6206C69.3041 74.4483 71.042 71.9285 73.0405 70.6251C73.7356 70.1038 74.5176 69.6693 75.2996 69.148C75.9079 68.8004 76.5161 68.4528 77.385 68.0184C77.5588 67.9315 77.7326 67.8446 77.9933 67.6708C78.3408 67.497 78.5146 67.4101 78.6015 67.3232C79.1228 67.0626 79.4704 66.8888 79.9049 66.6281C80.1655 66.4543 80.4262 66.3674 80.8607 66.1068C81.382 65.8461 81.5558 65.7592 81.9034 65.5854C82.164 65.3247 82.3378 64.9772 82.5985 64.8034C82.9461 64.4558 83.2067 64.1952 83.815 63.7607C84.3363 63.3262 84.597 63.1525 84.8577 62.8918C85.0314 62.6311 85.7266 61.936 85.6397 62.1098C85.8135 61.936 85.9872 61.7622 86.0741 61.5015C85.8135 60.6326 85.2921 59.4161 84.7708 58.3735C84.5101 58.2866 84.3363 58.2866 84.1625 58.2866H83.9019C83.7281 58.2866 83.6412 58.3735 83.4674 58.3735C83.2936 58.3735 83.2067 58.4603 83.0329 58.4603C82.8592 58.4603 82.8592 58.4603 82.8592 58.5472C82.7723 58.5472 82.6854 58.6341 82.5985 58.6341C82.4247 58.721 82.3378 58.721 82.2509 58.721C82.164 58.721 81.9903 58.8079 81.8165 58.8079C81.7296 58.8079 81.6427 58.8079 81.6427 58.8079C81.5558 58.8948 81.4689 58.8948 81.382 58.8948C81.2951 58.8948 81.2082 58.8948 81.0344 58.8948H80.1655C79.9049 58.8948 79.7311 58.8948 79.5573 58.8948C79.3835 58.8948 79.2966 58.8079 79.2097 58.8079C79.036 58.721 78.8622 58.6341 78.8622 58.6341C78.4277 58.4603 78.167 58.2866 77.9933 58.0259C77.385 57.5914 77.385 57.0701 77.4719 56.2012C77.5588 55.8536 77.5588 55.7667 77.5588 55.6798C77.385 55.5929 77.2112 55.4192 77.0375 55.2454C76.8637 54.8978 76.7768 54.4633 76.8637 54.1158C76.6899 53.6813 76.603 53.4207 76.603 53.0731C76.603 52.8124 76.6899 52.6386 76.7768 52.4649C76.7768 52.4649 76.8637 52.2911 76.9506 52.1173C76.9506 52.1173 76.8637 52.0304 76.7768 51.9435C76.603 51.8566 76.603 51.7697 76.5161 51.7697C76.2554 51.5959 76.0817 51.509 75.9079 51.3353C75.5603 50.9877 75.3865 50.6401 75.3865 50.1188C75.3865 49.6843 75.5603 49.2499 75.9079 48.9892C75.9948 48.9023 76.0817 48.7285 76.1685 48.7285C76.2554 48.6416 76.7768 48.2941 76.8637 48.1203C77.2112 47.8596 77.4719 47.5989 77.6457 47.3383C77.4719 46.5563 77.385 45.7742 77.6457 45.2529C77.6457 45.166 77.7326 44.9922 77.7326 44.9053C77.8195 44.8184 77.8195 44.7315 77.9064 44.7315C77.8195 44.8184 77.8195 44.9053 77.7326 44.9922C77.8195 44.8184 77.8195 44.6446 77.9933 44.384C77.9064 44.1233 77.9933 44.1233 77.9933 44.1233C78.0801 43.7757 78.2539 43.4282 78.6015 43.1675C78.6884 42.9068 78.8622 42.6461 79.036 42.2117C79.1228 42.1248 79.1228 42.0379 79.2097 41.951C79.2966 41.8641 79.2966 41.7772 79.3835 41.6903C79.3835 41.6035 79.4704 41.6035 79.4704 41.5166C79.4704 41.3428 79.4704 41.169 79.4704 40.9952C79.4704 40.9952 79.4704 40.9083 79.4704 40.7345C79.4704 40.4739 79.5573 40.1263 79.6442 39.7787C79.7311 39.5181 79.7311 39.4312 79.818 39.3443C79.9049 39.1705 79.9049 39.1705 79.9049 39.1705C80.1655 38.6492 80.3393 38.3016 80.6869 38.0409C81.8165 36.9113 83.1198 36.2162 84.0756 35.9555C84.5101 35.7817 84.9446 35.6949 85.5528 35.608C85.7266 35.608 85.9004 35.5211 86.161 35.5211C86.3348 35.5211 86.3348 35.4342 86.4217 35.4342C86.5086 35.4342 86.6824 35.3473 86.6824 35.3473C87.9857 34.9997 89.2891 34.9128 90.5925 34.9997C91.0269 35.0866 91.2876 35.1735 91.8958 35.2604C92.9385 35.4342 93.2861 35.5211 93.8943 35.7817C94.155 35.8686 94.4157 36.0424 94.8501 36.2162C95.1977 36.39 95.4584 36.5638 95.5453 36.6507C95.6322 36.5638 95.7191 36.4769 95.8059 36.4769C96.9355 35.608 98.4996 35.9555 99.6292 36.9113L99.8029 37.0851C101.454 38.0409 102.67 39.8656 103.626 42.2986C104.582 44.8184 105.016 47.6858 104.843 50.2057C104.756 51.509 104.582 52.5517 103.974 55.1585C103.8 56.0274 103.713 56.4618 103.539 56.9832C102.67 61.3278 102.931 63.8476 105.016 66.0199C105.538 66.5412 105.016 67.4101 104.321 67.2364C104.061 67.1495 103.626 67.0626 103.105 66.8888C102.236 66.5412 101.28 66.1068 100.411 65.4985C100.064 65.2379 99.8029 65.0641 99.5423 64.8034C99.6292 64.8903 99.7161 64.9772 99.8029 65.0641C99.8029 65.0641 100.237 65.5854 100.324 65.6723C100.759 66.1068 100.933 66.2805 100.933 66.3674C101.801 67.4101 102.41 68.6266 102.67 69.5824C102.844 70.5382 103.018 72.276 103.018 73.5794C103.105 73.8401 103.192 74.2745 103.452 74.9697C103.626 75.3172 104.148 76.8813 104.321 77.2288C104.582 78.0109 104.843 78.6191 105.016 79.2273C105.103 79.5749 105.277 80.0094 105.364 80.3569C105.625 81.3996 105.798 82.6161 105.885 83.7457C105.972 84.4408 105.885 84.0064 107.362 88.8723C107.449 89.1329 107.536 89.3067 107.536 89.5674C108.84 93.7382 109.187 95.5629 108.666 96.4318C108.579 96.6056 108.492 96.6925 108.405 96.7794C108.231 97.04 108.058 97.2138 107.971 97.3876C107.884 97.4745 107.797 97.5614 107.623 97.7352C107.362 98.1696 107.189 98.4303 107.015 98.691C107.015 98.691 106.667 99.0385 106.58 99.2123C105.625 100.429 97.8913 105.816 95.1977 107.38C95.4584 107.728 95.6322 108.075 95.8059 108.423ZM98.2389 63.4131C98.4127 63.6738 98.6734 63.9345 99.0209 64.2821C99.1078 64.3689 99.1078 64.3689 99.1947 64.4558C99.2816 64.6296 99.4554 64.7165 99.6292 64.8903C99.0209 64.3689 98.5865 63.9345 98.2389 63.4131ZM96.5011 57.8521C96.5011 56.2012 96.7618 54.724 97.4569 52.2042C97.4569 52.0304 97.5438 51.9435 97.6307 51.6828C97.8913 50.8139 97.9782 50.2926 98.0651 49.8581C97.9782 49.945 97.9782 50.0319 97.8913 50.2057C97.6307 50.5532 96.6749 51.8566 96.588 51.9435C96.0666 52.6386 95.7191 53.0731 95.2846 53.5944C95.0239 54.5502 95.1108 55.8536 95.4584 57.2439C95.8928 59.503 96.6749 61.3278 97.8044 62.718C97.9782 62.8918 98.152 63.1525 98.4127 63.4131C97.1093 61.936 96.5011 60.1113 96.5011 57.8521ZM79.036 42.2986V42.3855V42.2986ZM79.4704 41.7772C79.5573 41.7772 79.5573 41.7772 79.6442 41.7772C79.6442 41.7772 79.5573 41.7772 79.4704 41.7772ZM77.2112 55.6798C77.2112 55.6798 77.2981 55.6798 77.385 55.6798C77.385 55.6798 77.2981 55.6798 77.2112 55.6798ZM71.9978 92.5217C71.9978 92.4348 71.9978 92.4348 71.9978 92.5217C71.9978 92.4348 71.9978 92.4348 71.9978 92.5217ZM78.0801 54.3765V54.2896V54.3765ZM76.603 50.2057C76.5161 50.2057 76.5161 50.2057 76.603 50.2057C76.5161 50.2057 76.603 50.2057 76.603 50.2057ZM79.2966 44.384C79.2097 44.384 79.2097 44.384 79.1228 44.384C79.2966 44.384 79.2966 44.384 79.3835 44.384H79.2966ZM79.818 39.7787C79.818 39.6918 79.818 39.7787 79.9049 39.9525C80.6 40.3001 80.6 40.3001 80.9476 40.1263C81.1213 39.9525 81.1213 39.9525 81.2082 39.8656C80.7738 40.4739 79.9918 40.3001 79.818 39.7787ZM79.818 39.7787C79.818 39.6918 79.818 39.605 79.818 39.5181C79.818 39.605 79.818 39.605 79.818 39.605V39.7787Z" fill="white"/>
<path d="M93.0254 82.877C92.9385 82.9639 92.6779 83.2245 92.6779 83.3114C92.5041 83.4852 92.4172 83.5721 92.3303 83.7459C91.809 84.3541 91.2876 84.9624 90.2449 86.2657C89.2891 87.4822 88.9415 88.0036 88.4202 88.5249C87.8988 89.1331 87.6382 89.4807 87.4644 89.8283C86.8562 90.871 86.5086 94.1728 86.8562 97.0403C87.0299 97.8223 88.8547 100.255 90.2449 101.211C90.7663 101.645 91.2876 102.08 91.809 102.601C92.4172 102.08 93.0254 101.385 93.8075 100.516C94.0681 100.255 94.3288 99.9077 94.5895 99.5601C94.7633 99.3863 95.2846 98.6912 95.4584 98.6043C97.5438 96.0844 98.934 94.6942 100.411 93.6515C100.151 92.8695 99.7161 92.1743 99.1078 91.2185C98.8471 90.7841 97.7176 89.3938 97.7176 89.3938C97.1093 88.5249 96.6749 87.9167 96.2404 87.1347C95.1108 85.0493 94.2419 83.4852 93.7206 82.2687V82.1819C93.4599 82.3556 93.2861 82.6163 93.0254 82.877ZM87.2906 87.4822C87.812 86.9609 88.1595 86.4395 89.0284 85.223C90.0711 83.8328 90.5925 83.2246 91.2007 82.6163C91.2876 82.5294 91.4614 82.3556 91.5483 82.1819C91.6352 82.095 91.8958 81.8343 91.8958 81.7474C92.5041 81.0523 92.8516 80.6178 93.1123 80.1834C93.4599 79.5751 94.2419 79.662 94.5026 80.3571C94.5895 80.5309 94.6764 80.8785 95.0239 81.5736C95.5453 82.7032 96.3273 84.2672 97.4569 86.3526C97.8044 87.0478 98.2389 87.656 98.8471 88.438C98.8471 88.438 99.8898 89.9152 100.237 90.3496C101.106 91.653 101.628 92.6088 101.888 93.8253C101.975 94.1728 101.801 94.4335 101.541 94.6073C99.9767 95.5631 98.6734 96.8665 96.4142 99.4732C96.3273 99.5601 95.7191 100.255 95.5453 100.429C95.1977 100.777 94.937 101.124 94.6764 101.385C93.6337 102.601 92.7648 103.47 91.9827 104.078C91.6352 104.339 91.2007 104.252 90.94 103.992C90.3318 103.296 89.7236 102.688 89.2022 102.254C87.5513 101.211 85.4659 98.4305 85.2052 97.1271C84.8577 93.9991 85.2052 90.3496 85.9872 89.0463C86.4217 88.6118 86.6824 88.2642 87.2906 87.4822Z" fill="white"/>
</g>
<defs>
<clipPath id="clip0">
<rect width="50.1362" height="74.4657" fill="white" transform="translate(58.8772 35)"/>
</clipPath>
</defs>
</svg>
