<svg width="60" height="60" viewBox="0 0 60 60" fill="none" xmlns="http://www.w3.org/2000/svg">
<path d="M20.6813 25.7847H38.3186V34.4775H20.6813V25.7847Z" fill="#464646"/>
<path d="M51.4383 23.4206H50.2147V36.2396H51.4383C52.8525 36.2378 53.9987 35.092 54 33.6774V25.9819C53.9983 24.5677 52.852 23.4219 51.4383 23.4206Z" fill="#464646"/>
<path d="M45.4156 18H40.5562V42.2623H45.4156C46.8297 42.2605 47.976 41.1147 47.9773 39.7006V20.5617C47.976 19.1476 46.8297 18.0017 45.4156 18Z" fill="#464646"/>
<path d="M11.0227 20.5617V39.7006C11.024 41.1147 12.1703 42.261 13.5844 42.2623H18.4438V18H13.5844C12.1703 18.0017 11.024 19.1476 11.0227 20.5617Z" fill="#464646"/>
<path d="M5 25.9823V33.6774C5.00131 35.092 6.14756 36.2378 7.5617 36.2396H8.7853V23.4206H7.5617C6.14756 23.4219 5.00175 24.5682 5 25.9823Z" fill="#464646"/>
</svg>
