<svg width="60" height="60" viewBox="0 0 60 60" fill="none" xmlns="http://www.w3.org/2000/svg">
<path d="M15.945 30.507H21.6519C20.5237 28.2965 18.6016 25.4547 15.3403 22.4366C14.7042 21.8481 13.8499 21.5105 12.9961 21.5105C12.0984 21.5105 11.2187 21.8585 10.3814 22.5449C7.77044 24.685 9.55094 27.3291 10.1589 28.0886C10.9621 29.0922 11.8029 30.5062 12.5438 32.1886C13.3282 31.1672 14.5607 30.507 15.945 30.507Z" fill="#464646"/>
<path d="M49.6188 22.5449C48.7814 21.8586 47.9018 21.5105 47.0041 21.5105C46.1504 21.5105 45.2959 21.8481 44.6599 22.4367C41.3984 25.4547 39.4764 28.2965 38.3484 30.5071H44.0552C45.4391 30.5071 46.6713 31.1668 47.4556 32.1877C48.1967 30.5055 49.0378 29.0922 49.8412 28.0886C50.4492 27.3291 52.2297 24.6849 49.6188 22.5449Z" fill="#464646"/>
<path d="M46.5784 40.4686V34.7944C46.5784 33.4031 45.4465 32.2712 44.0553 32.2712H15.945C14.5537 32.2712 13.4219 33.4031 13.4219 34.7944V40.4686C13.4219 41.8599 14.5537 42.9917 15.945 42.9917H44.0552C45.4465 42.9917 46.5784 41.8599 46.5784 40.4686Z" fill="#464646"/>
<path d="M40.8865 44.7558L41.3027 48.0511H43.4255L43.8418 44.7558H40.8865Z" fill="#464646"/>
<path d="M16.1584 44.7558L16.5747 48.0511H18.6976L19.1138 44.7558H16.1584Z" fill="#464646"/>
<path d="M36.3787 30.5071C37.5878 27.8845 39.7153 24.6088 43.4617 21.1418C43.9901 20.6528 44.6033 20.2843 45.2633 20.0487C42.889 14.7597 36.9434 11 30.0001 11C23.0568 11 17.1101 14.7593 14.7357 20.0483C15.3961 20.2839 16.0097 20.6525 16.5384 21.1418C20.2849 24.6087 22.4124 27.8843 23.6214 30.5071H36.3787Z" fill="#464646"/>
</svg>
