<svg width="60" height="60" viewBox="0 0 60 60" fill="none" xmlns="http://www.w3.org/2000/svg">
<path d="M49.716 34.8199C47.7218 33.141 45.1934 32.5293 43.0939 32.3492C42.7551 32.5861 42.2084 33.0139 41.641 33.6372C41.2915 34.0227 40.9339 34.4821 40.6124 35.0189C39.7918 36.3889 39.209 38.257 39.5981 40.6529H50.0906H51.4678H52.8379C52.4596 38.2048 51.4129 36.2484 49.716 34.8199Z" fill="#464646"/>
<path d="M38.3965 43.3552L9.09237 26.499L7 29.7055L37.0752 47.1679H53V43.3552H38.3965Z" fill="#464646"/>
<path d="M37.9796 29.1354L36.8608 29.8938V29.8947L35.7403 30.6539L32.9373 32.5546L31.4205 30.3172L34.3307 28.3437L35.4504 27.5844L36.57 26.8261L35.6629 25.3399L34.5388 26.091L33.4138 26.8422L30.6918 28.6608L29.1912 26.4135L32.0051 24.5337L33.1292 23.7825L34.2543 23.0313L32.6501 20.4039L32.0052 19.1484L30.8559 19.9167C30.665 19.9906 29.3643 20.4247 26.5235 19.7897C23.7925 19.1799 20.2184 15.6499 19.0718 14.3421L17.8981 13L10.5706 24.2319L11.7433 24.9065L12.9169 25.5821L36.7717 39.3037C36.7455 37.2708 37.268 35.5874 37.9471 34.2678C38.1948 33.785 38.4633 33.35 38.7343 32.9645C38.8118 32.8546 38.8892 32.7483 38.9668 32.6456C39.1856 32.3556 39.41 32.088 39.6324 31.843L37.9796 29.1354Z" fill="#464646"/>
</svg>
