<svg width="60" height="60" viewBox="0 0 60 60" fill="none" xmlns="http://www.w3.org/2000/svg">
<path d="M53.6127 12.6334H52.1972V11.5684C52.1972 10.6087 51.4193 9.77467 50.4596 9.77467H49.3385V8.38733C49.3385 7.62119 48.7594 7 47.9932 7C47.2271 7 46.6479 7.62119 46.6479 8.38733V12.6334H13.3519V8.38733C13.3519 7.62119 12.6887 7 11.9225 7C11.1564 7 10.4932 7.62119 10.4932 8.38733V9.77467H9.54036C8.58067 9.77467 7.80275 10.5526 7.80275 11.5123V12.6334H6.38733C5.62119 12.6334 5 13.2126 5 13.9787C5 14.7449 5.62119 15.324 6.38733 15.324H7.80275V16.3611C7.80275 17.3208 8.58067 18.1827 9.54036 18.1827H10.4933V19.486C10.4933 20.2521 11.1566 20.8733 11.9227 20.8733C12.6889 20.8733 13.3521 20.2521 13.3521 19.486V15.324H18.3463C18.3411 15.6415 18.3947 15.9652 18.5172 16.2795L18.6453 16.6089C20.3299 20.9357 23.2802 24.6888 27.0573 27.3573V37.0557C27.0573 37.2292 27.07 37.3996 27.0926 37.5669C24.4164 42.1128 21.1089 46.1194 17.2452 49.487L17.1781 49.5456C16.1274 50.4602 16.0171 52.0535 16.9316 53.1044C17.4303 53.6773 18.1309 53.9706 18.8352 53.9706C19.4225 53.9706 20.0125 53.7666 20.4904 53.3507L20.5588 53.2912C24.5937 49.7741 28.077 45.6356 30.9376 40.9658C34.826 43.7282 37.5191 47.5226 38.6088 51.8369L38.653 52.012C38.9416 53.1557 39.9687 53.9179 41.0969 53.9179C41.3012 53.9179 41.5087 53.8929 41.7159 53.8406C43.0666 53.4999 43.8854 52.1284 43.5445 50.7777L43.5001 50.6021C42.1852 45.3957 39.0749 40.8118 34.6079 37.4041C34.6183 37.2893 34.6245 37.1732 34.6245 37.0557V27.5954C38.6157 24.8337 41.69 20.8843 43.376 16.3037L43.4024 16.2314C43.512 15.9317 43.5586 15.625 43.5536 15.324H46.6481V19.486C46.6481 20.2521 47.2272 20.8733 47.9934 20.8733C48.7595 20.8733 49.3387 20.2521 49.3387 19.486V18.0146H50.4598C51.4195 18.0146 52.1974 17.2646 52.1974 16.3049V15.324H53.6128C54.379 15.324 55.0002 14.7449 55.0002 13.9787C55 13.2126 54.379 12.6334 53.6127 12.6334ZM34.6257 20.9897C34.0361 19.5114 32.5925 18.4661 30.9036 18.4661C29.2605 18.4661 27.8493 19.4554 27.231 20.8706C25.6965 19.2615 24.4506 17.3821 23.5721 15.324H38.3412C37.4581 17.4322 36.1911 19.3503 34.6257 20.9897Z" fill="#464646"/>
</svg>
