<svg width="135" height="62" viewBox="0 0 135 62" fill="none" xmlns="http://www.w3.org/2000/svg">
<path d="M14.1373 35.328L8.18531 40.8V48H4.77731V12.384H8.18531V36.528L23.2573 22.752H27.4813L16.6813 33.072L28.4893 48H24.3133L14.1373 35.328ZM55.5182 36.432H34.3982C34.5902 39.056 35.5982 41.184 37.4222 42.816C39.2462 44.416 41.5502 45.216 44.3342 45.216C45.9022 45.216 47.3422 44.944 48.6542 44.4C49.9662 43.824 51.1022 42.992 52.0622 41.904L53.9822 44.112C52.8622 45.456 51.4542 46.48 49.7582 47.184C48.0942 47.888 46.2542 48.24 44.2382 48.24C41.6462 48.24 39.3422 47.696 37.3262 46.608C35.3422 45.488 33.7902 43.952 32.6702 42C31.5502 40.048 30.9902 37.84 30.9902 35.376C30.9902 32.912 31.5182 30.704 32.5742 28.752C33.6622 26.8 35.1342 25.28 36.9902 24.192C38.8782 23.104 40.9902 22.56 43.3262 22.56C45.6622 22.56 47.7582 23.104 49.6142 24.192C51.4702 25.28 52.9262 26.8 53.9822 28.752C55.0382 30.672 55.5662 32.88 55.5662 35.376L55.5182 36.432ZM43.3262 25.488C40.8942 25.488 38.8462 26.272 37.1822 27.84C35.5502 29.376 34.6222 31.392 34.3982 33.888H52.3022C52.0782 31.392 51.1342 29.376 49.4702 27.84C47.8382 26.272 45.7902 25.488 43.3262 25.488ZM76.7589 46.464C76.1189 47.04 75.3189 47.488 74.3589 47.808C73.4309 48.096 72.4549 48.24 71.4309 48.24C69.0629 48.24 67.2389 47.6 65.9589 46.32C64.6789 45.04 64.0389 43.232 64.0389 40.896V25.632H59.5269V22.752H64.0389V17.232H67.4469V22.752H75.1269V25.632H67.4469V40.704C67.4469 42.208 67.8149 43.36 68.5509 44.16C69.3189 44.928 70.4069 45.312 71.8149 45.312C72.5189 45.312 73.1909 45.2 73.8309 44.976C74.5029 44.752 75.0789 44.432 75.5589 44.016L76.7589 46.464ZM93.3523 48.24C90.9203 48.24 88.7283 47.696 86.7763 46.608C84.8243 45.488 83.2883 43.952 82.1683 42C81.0483 40.048 80.4883 37.84 80.4883 35.376C80.4883 32.912 81.0483 30.704 82.1683 28.752C83.2883 26.8 84.8243 25.28 86.7763 24.192C88.7283 23.104 90.9203 22.56 93.3523 22.56C95.7843 22.56 97.9763 23.104 99.9283 24.192C101.88 25.28 103.4 26.8 104.488 28.752C105.608 30.704 106.168 32.912 106.168 35.376C106.168 37.84 105.608 40.048 104.488 42C103.4 43.952 101.88 45.488 99.9283 46.608C97.9763 47.696 95.7843 48.24 93.3523 48.24ZM93.3523 45.216C95.1443 45.216 96.7443 44.816 98.1523 44.016C99.5923 43.184 100.712 42.016 101.512 40.512C102.312 39.008 102.712 37.296 102.712 35.376C102.712 33.456 102.312 31.744 101.512 30.24C100.712 28.736 99.5923 27.584 98.1523 26.784C96.7443 25.952 95.1443 25.536 93.3523 25.536C91.5603 25.536 89.9443 25.952 88.5043 26.784C87.0963 27.584 85.9763 28.736 85.1443 30.24C84.3443 31.744 83.9443 33.456 83.9443 35.376C83.9443 37.296 84.3443 39.008 85.1443 40.512C85.9763 42.016 87.0963 43.184 88.5043 44.016C89.9443 44.816 91.5603 45.216 93.3523 45.216Z" fill="#525252"/>
<path d="M130.166 48L122.15 37.44L114.086 48H110.246L120.23 35.04L110.726 22.752H114.566L122.15 32.64L129.734 22.752H133.478L123.974 35.04L134.054 48H130.166Z" fill="#8C53FF"/>
</svg>
