<svg width="168" height="168" viewBox="0 0 168 168" fill="none" xmlns="http://www.w3.org/2000/svg">
<g clip-path="url(#clip0)">
<path d="M91.9633 58.0705C91.9375 58.0705 91.9156 58.0711 91.8967 58.0722C91.8959 58.0727 91.8951 58.0732 91.8944 58.0737C91.9171 58.0716 91.9401 58.0705 91.9633 58.0705ZM96.5513 46.436C96.0602 46.6815 95.4824 46.3244 95.4824 45.7754C95.4784 45.7985 95.4784 45.7985 95.5867 46.1527L96.4915 46.4613L96.8687 46.1286C96.9034 46.0596 96.9034 46.0596 96.9276 45.9883C96.9428 45.9263 96.9474 45.9076 96.9489 45.8993C96.9443 45.9373 96.9442 45.9385 96.9363 46.0085C96.9308 46.0581 96.924 46.1193 96.9163 46.1907C96.7855 46.3009 96.6604 46.3814 96.5513 46.436ZM91.9383 60.423C91.9469 60.4055 91.9528 60.3927 91.9576 60.3814C91.9568 60.3822 91.9559 60.383 91.9551 60.3838C91.9499 60.397 91.9443 60.4101 91.9383 60.423ZM69.4892 61.4682C66.8433 63.6135 64.4099 66.8504 62.9033 69.7476C61.5614 72.3568 60.8536 75.5117 60.5507 79.4484C60.3697 82.344 60.5329 83.4752 61.7209 86.9615C61.9869 87.6654 63.7181 91.4755 64.1382 92.4742C66.0233 96.9566 67.0266 100.762 66.9621 104.482C66.9348 106.058 66.7044 107.563 66.2527 108.994C66.1298 109.383 65.7149 109.599 65.326 109.476C64.937 109.353 64.7212 108.938 64.8441 108.549C65.2515 107.259 65.4603 105.895 65.4852 104.457C65.5453 100.984 64.5891 97.3566 62.7765 93.0469C62.3732 92.0877 60.6255 88.2415 60.331 87.4608C59.074 83.7736 58.8831 82.45 59.0772 79.3457C59.3945 75.2195 60.1424 71.8862 61.5912 69.0691C63.1857 66.0028 65.7375 62.6083 68.5434 60.3337C69.0519 59.8978 69.5258 59.3675 69.9594 58.7659C70.0505 58.6157 70.088 58.5634 70.171 58.4528C70.2176 58.3907 70.2755 58.3038 70.3448 58.1922C71.0666 57.2298 72.8194 53.0161 72.8907 52.1185C72.8907 51.8604 72.8889 51.7383 72.881 51.5946C72.8723 51.4388 72.8569 51.3092 72.8348 51.2066C72.2645 49.7046 72.1512 47.7846 72.3719 45.801C72.43 45.1038 72.4768 44.6754 72.5792 44.0691C72.73 43.176 72.9503 42.3177 73.2613 41.5048C73.6479 40.4942 74.1578 39.6016 74.8063 38.8648C75.9126 37.5741 77.3988 36.6153 79.0775 36.058C80.6569 35.393 82.4893 35.1312 84.7513 35.1312C87.8989 35.1312 92.6893 36.6663 95.3752 39.7153C96.9318 41.4134 97.6545 42.5355 97.7416 44.0376C97.7416 44.3359 97.7373 44.4865 97.7153 44.6839C97.6821 44.9828 97.6133 45.2506 97.4625 45.5472C97.3931 45.6629 97.3163 45.7705 97.2332 45.8701C97.1275 45.997 97.0201 46.1032 96.9163 46.1907C96.9079 46.2687 96.8982 46.3588 96.8875 46.4591C96.8452 46.8568 96.7908 47.3801 96.7385 47.8923C96.6172 49.0806 96.5251 50.0452 96.5251 50.12C96.401 50.7074 96.2042 51.129 95.9666 51.4855C95.8722 51.627 95.8085 51.6987 95.5706 51.9514C95.6396 52.6843 95.6829 53.1806 95.6602 53.6798C95.6578 53.7318 95.6564 54.5147 95.6562 56.0286C95.6562 57.2137 94.8927 58.0196 93.7011 57.8967C93.5561 57.8967 93.4502 57.8855 93.2627 57.8554C93.0942 58.0738 93.0847 58.1302 93.122 58.3167C93.1363 58.7777 93.01 59.0732 92.7887 59.2596C92.7873 59.4744 92.7565 59.6308 92.612 59.8315C92.5083 59.9756 92.3717 60.0823 92.2067 60.1648C92.0392 60.3027 92.0093 60.3311 91.9784 60.3611C91.9778 60.7058 91.976 60.812 91.9667 60.9499C91.934 61.4393 91.8261 61.8155 91.5298 62.1119C91.3483 62.2933 91.142 62.4554 90.5817 62.8756C89.8039 63.3266 89.2079 63.4079 88.5799 63.2795C88.1386 63.2304 87.4488 62.9572 86.4558 62.487C86.344 62.4341 86.2294 62.379 86.1118 62.3219C85.8306 62.1852 85.547 62.0436 85.2382 61.8865C85.2133 61.9761 85.1864 62.071 85.1574 62.1727C85.1826 62.0842 85.0334 62.6045 84.998 62.7306C84.9413 62.9319 84.8973 63.0952 84.8438 63.3003C84.8139 63.4105 84.8047 63.4592 84.7847 63.5792C84.7566 63.7479 84.7365 63.8538 84.7076 63.959C84.7069 64.1145 84.7039 64.2138 84.6951 64.3358C84.8492 64.5088 85.0015 64.6351 85.138 64.7607C85.7097 64.9521 86.2488 65.2324 86.9479 65.6642C87.0746 65.7425 87.4965 66.0078 87.4888 66.003C88.9915 66.9421 90.2564 68.049 91.3184 69.3766C92.1856 70.4364 92.9386 71.7142 93.3899 72.9932C94.4735 73.389 97.0783 74.5024 98.3473 75.3867C98.8794 75.7575 99.383 76.1625 99.8581 76.608C101.875 78.5263 103.082 80.4275 103.756 82.4887C104.355 81.0831 105.328 79.5802 106.811 77.5425C106.877 77.4523 106.877 77.4523 106.942 77.3622C107.335 76.823 107.537 76.5423 107.759 76.2284C107.992 75.8179 109.03 74.2151 109.406 73.7136C110.113 72.3241 110.62 70.8312 110.887 69.4834C110.999 68.9169 111.061 68.4099 111.07 68.0243C111.074 67.8591 111.068 67.726 111.054 67.6358C110.673 67.2678 110.198 65.9006 110.003 64.926C109.987 64.8264 109.752 64.2914 109.418 63.612C109.174 63.1229 109.003 62.7874 108.831 62.4579C108.728 62.2603 108.648 62.1089 108.603 62.0241C108.518 61.8651 108.494 61.6807 108.536 61.5054C108.558 61.4153 108.597 61.2695 108.656 61.0856C108.753 60.7802 108.869 60.474 109.008 60.1834C109.326 59.5146 109.71 59.0156 110.228 58.7567C110.451 58.6452 110.715 58.6537 110.93 58.7794C111.526 57.402 112.644 56.7665 114.274 57.3288C118.105 58.6496 119.335 59.213 119.759 60.2726C119.927 60.6923 120.013 61.3395 120.055 62.2076C120.084 62.8024 120.088 63.4287 120.077 63.9998C120.076 64.0684 120.068 64.1899 120.053 64.3645C120.038 64.4282 120.01 64.5526 119.97 64.7321C119.903 65.0325 119.828 65.377 119.748 65.7601C119.517 66.8556 119.287 68.0394 119.072 69.2673C118.793 70.8592 118.561 72.4061 118.393 73.862C118.289 74.7604 118.21 75.6116 118.16 76.401C117.912 80.9874 117.6 84.5115 116.937 89.1517C116.462 92.4753 113.264 99.9854 112.036 101.213C111.914 101.335 111.151 102.143 110.948 102.32C110.401 102.796 109.854 102.99 108.739 103.145C108.672 103.159 108.581 103.188 108.439 103.24C108.36 103.269 108.008 103.402 107.92 103.435C107.8 103.479 107.694 103.517 107.591 103.552C106.884 103.793 106.413 103.882 105.985 103.739C101.856 102.397 96.9098 100.456 94.9721 99.3255C94.1512 98.833 93.3528 98.3083 92.6636 97.816C92.2541 97.5235 91.8872 97.2427 91.5629 96.9781C91.2471 97.5855 90.8071 98.1989 90.2695 98.8174C90.644 99.8231 90.5822 101.145 90.2469 102.26C90.0733 102.954 89.7477 103.659 89.3134 104.309C89.3142 104.554 89.3168 104.703 89.3234 104.876C89.3344 105.162 89.3557 105.403 89.3914 105.618C89.5706 106.783 89.4375 107.892 89.0198 109.249C88.8998 109.639 88.4865 109.858 88.0967 109.738C87.7068 109.618 87.488 109.205 87.608 108.815C87.9652 107.654 88.0725 106.76 87.9329 105.852C87.8871 105.577 87.8606 105.276 87.8474 104.933C87.8379 104.687 87.836 104.491 87.836 104.079C87.836 103.925 87.8841 103.775 87.9735 103.65C88.3739 103.09 88.6697 102.478 88.8229 101.869C89.1106 100.91 89.1317 99.7498 88.7951 99.1327C88.7359 99.0242 88.7049 98.9026 88.7049 98.779C88.7049 98.4963 88.7827 98.3084 88.9212 98.1699C89.0547 97.9656 89.0974 97.9068 89.1483 97.8582C89.8511 97.0551 90.364 96.2463 90.5556 95.5435C90.7048 94.9964 91.3894 94.8146 91.7904 95.2156C91.8533 95.2785 91.9915 95.4068 92.205 95.5898C92.5689 95.9017 93.008 96.2467 93.5222 96.614C94.1798 97.0837 94.9454 97.5868 95.7242 98.0542C97.5367 99.1115 102.408 101.023 106.447 102.336C106.451 102.338 106.73 102.285 107.114 102.154C107.204 102.124 107.299 102.09 107.408 102.049C107.488 102.02 107.843 101.885 107.932 101.853C108.143 101.776 108.284 101.73 108.38 101.712C109.389 101.564 109.688 101.458 109.978 101.205C110.117 101.085 110.823 100.337 110.992 100.168C111.967 99.1928 115.042 91.9743 115.475 88.9428C116.131 84.351 116.439 80.8679 116.685 76.3143C116.738 75.491 116.819 74.6147 116.925 73.692C117.098 72.2053 117.333 70.6308 117.617 69.0125C117.835 67.7671 118.068 66.5671 118.302 65.4562C118.384 65.067 118.46 64.7166 118.528 64.4105C118.557 64.279 118.581 64.1756 118.598 64.1022C118.61 63.432 118.606 62.836 118.579 62.2793C118.545 61.5742 118.474 61.0374 118.388 60.8212C118.22 60.4031 116.883 59.7908 113.793 58.7253C112.975 58.4434 112.667 58.6188 112.47 59.1866C112.37 59.4743 112.336 59.7884 112.339 60.0042C112.357 60.5829 111.73 60.9558 111.229 60.6635L110.636 60.3179C110.54 60.4449 110.438 60.6144 110.341 60.8184C110.235 61.0421 110.142 61.287 110.064 61.5326C110.074 61.6474 110.106 61.7089 110.141 61.7754C110.317 62.1123 110.492 62.4555 110.656 62.7853C111.169 63.8245 111.408 64.3708 111.456 64.6597C111.588 65.3186 112.001 66.5064 112.264 66.7761C112.982 67.6735 112.236 71.4351 110.694 74.4393C110.659 74.5076 110.613 74.5699 110.559 74.6242C110.477 74.7059 109.131 76.7834 109.046 76.9521C108.753 77.3829 108.547 77.6681 108.136 78.2316C108.071 78.3217 108.071 78.3217 108.005 78.4117C105.449 81.9234 104.546 83.6708 104.431 86.1272C104.388 87.0521 103.028 87.0727 102.957 86.1496C102.711 82.95 101.667 80.3674 98.8439 77.6819C98.4259 77.2901 97.9778 76.9296 97.5028 76.5986C96.5065 75.9044 95.4429 75.3699 94.3256 74.9477C93.7739 74.7392 92.591 74.3726 92.5019 74.3281C92.3185 74.2364 92.1815 74.0726 92.1237 73.8759C91.7632 72.6503 91.0305 71.3573 90.1701 70.3056C89.2098 69.1052 88.0707 68.1086 86.7059 67.2556C86.7092 67.2576 86.2924 66.9955 86.1716 66.921C85.5029 66.5079 85.0263 66.2664 84.5391 66.1202C84.422 66.0851 84.3155 66.0215 84.2291 65.9351C84.036 65.742 83.7482 65.5159 83.4727 65.3322C83.1956 65.1475 83.0764 64.8001 83.1817 64.4841C83.1991 64.4321 83.2136 64.3453 83.2217 64.2306C83.2291 64.1282 83.2307 64.0379 83.2307 63.8488C83.2307 63.7694 83.2435 63.6905 83.2686 63.6152C83.2887 63.555 83.3013 63.4943 83.3277 63.3363C83.3542 63.177 83.3684 63.1016 83.3944 62.9982C83.4682 62.7209 83.5158 62.5444 83.5761 62.3303C83.6127 62.2002 83.7634 61.6747 83.7371 61.7668C83.8756 61.2819 83.9594 60.9665 84.0303 60.6474C84.1346 60.1783 84.6519 59.9321 85.0816 60.147C85.1614 60.1868 85.6653 60.4461 85.7389 60.4837C86.1077 60.6723 86.4353 60.8367 86.7577 60.9934C86.8708 61.0484 86.9809 61.1013 87.0879 61.152C87.9096 61.541 88.5332 61.788 88.8063 61.8212C89.148 61.8895 89.377 61.8622 89.7341 61.6649C90.1886 61.3236 90.38 61.1726 90.4852 61.0673C90.4992 60.7567 90.5006 60.6734 90.5006 60.4954C90.5006 60.1802 90.5017 60.0604 90.5358 59.9494C90.5449 59.8672 90.5667 59.7986 90.6184 59.6953C90.6804 59.5713 90.7029 59.5464 90.8328 59.4164C90.9189 59.3303 90.9858 59.265 91.0677 59.1892C91.166 59.1 91.2079 59.0637 91.2482 59.0308C91.2247 58.5226 91.3878 58.2742 91.6262 58.1517C91.6283 57.7305 91.7731 57.3682 92.0676 56.9757C92.173 56.5897 92.4726 56.3327 92.8322 56.3327C93.0716 56.3327 93.1967 56.3473 93.395 56.3801C93.5867 56.412 93.647 56.4196 93.7746 56.4232C94.1137 56.4571 94.179 56.3881 94.179 56.0286V53.7694C94.2037 53.1922 94.1581 52.7838 93.9563 52.1782C93.9057 52.0266 93.9057 51.8627 93.9563 51.7111C94.0395 51.4613 94.1745 51.2835 94.4307 51.0077C94.6602 50.7635 94.7098 50.7077 94.7375 50.6661C94.8733 50.4625 94.9898 50.2202 95.0534 50.0019C95.0739 49.6935 95.1506 48.9025 95.269 47.7424C95.3215 47.2282 95.3761 46.7027 95.4187 46.3028C95.4394 46.1082 95.4564 45.9511 95.4683 45.8444C95.4912 45.6523 95.4912 45.6523 95.5137 45.5605C95.5371 45.4918 95.538 45.4889 95.9008 45.135C95.9173 45.1015 96.0037 45.0381 96.0985 44.9244C96.2049 44.7643 96.2318 44.6597 96.2472 44.5208C96.2612 44.3949 96.2644 44.2823 96.2657 44.0809C96.2069 43.0811 95.6169 42.165 94.2765 40.7026C92.9427 39.1886 91.0429 38.0904 88.8162 37.3769C87.2563 36.877 85.6056 36.6084 84.7513 36.6084C82.6688 36.6084 81.0162 36.8445 79.5976 37.4394C78.1114 37.9348 76.8532 38.7465 75.9215 39.8334C75.392 40.4351 74.9684 41.1766 74.6409 42.0327C74.1581 43.2946 73.9704 44.406 73.842 45.9439C73.6408 47.7542 73.7457 49.4739 74.2307 50.7212C74.3117 51.0211 74.3413 51.251 74.3558 51.5127C74.3658 51.6924 74.3678 51.8335 74.3657 52.1751C74.2706 53.4112 72.4595 57.7787 71.5641 59.0272C71.5121 59.122 71.4568 59.2003 71.3527 59.3391C70.6823 60.2955 70.1207 60.9272 69.4892 61.4682ZM92.0825 60.2135C92.0544 60.2216 92.0258 60.2281 91.9969 60.2329C92.0281 60.229 92.0563 60.222 92.0825 60.2135Z" fill="white"/>
</g>
<defs>
<clipPath id="clip0">
<rect width="61.6928" height="74.7264" fill="white" transform="translate(58.8772 35)"/>
</clipPath>
</defs>
</svg>
